<?xml version="1.0" standalone="no"?>
<!DOCTYPE svg PUBLIC "-//W3C//DTD SVG 20010904//EN"
 "http://www.w3.org/TR/2001/REC-SVG-20010904/DTD/svg10.dtd">
<svg version="1.0" xmlns="http://www.w3.org/2000/svg"
 width="512.000000pt" height="512.000000pt" viewBox="0 0 512.000000 512.000000"
 preserveAspectRatio="xMidYMid meet">

<g transform="translate(0.000000,512.000000) scale(0.100000,-0.100000)"
fill="#000000" stroke="none">
<path d="M195 2711 c-69 -17 -134 -70 -171 -141 -18 -33 -19 -74 -19 -850 0
-776 1 -817 19 -850 26 -49 74 -98 121 -123 l40 -22 2375 0 2375 0 40 22 c47
25 95 74 121 123 18 33 19 74 19 850 0 776 -1 817 -19 850 -26 49 -74 98 -121
123 l-40 22 -2355 2 c-1295 0 -2368 -2 -2385 -6z m2478 -299 c91 -40 151 -122
176 -240 13 -61 15 -132 4 -132 -5 0 -62 -7 -127 -15 -137 -17 -136 -17 -136
58 0 94 -39 140 -104 123 -54 -13 -71 -128 -32 -205 9 -16 66 -76 128 -133
213 -196 264 -261 294 -378 23 -89 16 -198 -18 -271 -36 -78 -80 -124 -155
-161 -117 -57 -294 -51 -404 15 -67 41 -109 95 -137 180 -24 72 -41 207 -26
207 5 0 63 9 129 19 66 10 122 17 124 15 3 -3 8 -36 12 -74 4 -38 16 -86 25
-106 22 -46 69 -68 113 -53 35 12 45 35 44 105 -2 97 -42 154 -208 298 -123
107 -196 196 -222 271 -27 76 -24 234 6 301 41 94 141 170 254 194 66 14 209
4 260 -18z m-715 -599 l-3 -608 -23 -50 c-52 -114 -118 -146 -309 -153 l-133
-5 0 112 0 111 34 0 c18 0 48 5 66 11 60 22 60 19 60 634 l0 555 155 0 156 0
-3 -607z m1672 502 l0 -105 -145 0 -145 0 0 -170 0 -169 128 -3 127 -3 3 -107
3 -108 -131 0 -130 0 0 -305 0 -305 -155 0 -155 0 0 690 0 690 300 0 300 0 0
-105z"/>
</g>
</svg>
